STARTFONT 2.3
FONT -FontForge-Tangerine-Book-R-Normal--28-280-72-72-P-104-ISO10646-1
SIZE 28 72 72  2
FONTBOUNDINGBOX 46 31 -9 -9
COMMENT "Generated by fontforge, http://fontforge.sourceforge.net"
COMMENT "Copyright (c) 2010 by Toshi Omagari. All rights reserved."
STARTPROPERTIES 40
FOUNDRY "FontForge"
FAMILY_NAME "Tangerine"
WEIGHT_NAME "Book"
SLANT "R"
SETWIDTH_NAME "Normal"
ADD_STYLE_NAME ""
PIXEL_SIZE 28
POINT_SIZE 280
RESOLUTION_X 72
RESOLUTION_Y 72
SPACING "P"
AVERAGE_WIDTH 104
CHARSET_REGISTRY "ISO10646"
CHARSET_ENCODING "1"
FONTNAME_REGISTRY ""
CHARSET_COLLECTIONS "ISO10646-1"
BITS_PER_PIXEL 2
FONT_NAME "Tangerine-Regular"
FACE_NAME "Tangerine Regular"
COPYRIGHT "Copyright (c) 2010 by Toshi Omagari. All rights reserved."
FONT_VERSION "1.3"
FONT_ASCENT 21
FONT_DESCENT 7
UNDERLINE_POSITION -3
UNDERLINE_THICKNESS 2
X_HEIGHT 6
CAP_HEIGHT 17
RAW_ASCENT 750
RAW_DESCENT 250
NORM_SPACE 4
RELATIVE_WEIGHT 40
RELATIVE_SETWIDTH 50
SUPERSCRIPT_X 0
SUPERSCRIPT_Y 13
SUPERSCRIPT_SIZE 18
SUBSCRIPT_X 0
SUBSCRIPT_Y 3
SUBSCRIPT_SIZE 18
AVG_LOWERCASE_WIDTH 68
AVG_UPPERCASE_WIDTH 198
ENDPROPERTIES
CHARS 233
STARTCHAR space
ENCODING 32
SWIDTH 150 0
DWIDTH 4 0
BBX 1 1 0 0
BITMAP
00
ENDCHAR
STARTCHAR exclam
ENCODING 33
SWIDTH 189 0
DWIDTH 5 0
BBX 8 16 1 0
BITMAP
0001
000A
001C
0028
0030
0060
0090
0080
0140
0200
0100
0400
0000
0000
3000
6000
ENDCHAR
STARTCHAR quotedbl
ENCODING 34
SWIDTH 214 0
DWIDTH 6 0
BBX 6 5 1 7
BITMAP
0110
0D60
2480
2140
4100
ENDCHAR
STARTCHAR numbersign
ENCODING 35
SWIDTH 289 0
DWIDTH 8 0
BBX 9 9 0 0
BITMAP
008200
014800
1BFF40
051000
082000
6FE800
144000
104000
110000
ENDCHAR
STARTCHAR dollar
ENCODING 36
SWIDTH 269 0
DWIDTH 8 0
BBX 7 13 0 -2
BITMAP
0004
0004
01B8
0354
0204
0240
01D0
0160
1130
9420
6940
0400
1000
ENDCHAR
STARTCHAR percent
ENCODING 37
SWIDTH 388 0
DWIDTH 11 0
BBX 11 13 0 -2
BITMAP
000010
000020
0B8080
24C200
208500
504850
6522B0
145424
014820
020810
080A40
140000
200000
ENDCHAR
STARTCHAR ampersand
ENCODING 38
SWIDTH 507 0
DWIDTH 14 0
BBX 14 13 0 0
BITMAP
001F0000
00224000
00820000
00810000
00800000
00800000
015002D0
04200810
20241000
60184000
700A4000
3806D010
1BA06E80
ENDCHAR
STARTCHAR quotesingle
ENCODING 39
SWIDTH 120 0
DWIDTH 3 0
BBX 4 4 1 7
BITMAP
09
18
20
40
ENDCHAR
STARTCHAR parenleft
ENCODING 40
SWIDTH 250 0
DWIDTH 7 0
BBX 7 21 2 -3
BITMAP
0004
0014
0050
0080
0240
0200
0900
0C00
1800
2400
3400
3000
7000
6000
6000
6000
6000
2000
2000
2000
1000
ENDCHAR
STARTCHAR parenright
ENCODING 41
SWIDTH 276 0
DWIDTH 8 0
BBX 7 21 1 -3
BITMAP
0010
0020
0020
0024
0014
0024
0024
0024
0034
0030
0070
0060
0090
00C0
0180
0240
0600
0800
1400
6000
4000
ENDCHAR
STARTCHAR asterisk
ENCODING 42
SWIDTH 188 0
DWIDTH 5 0
BBX 5 5 1 6
BITMAP
0400
4A80
2900
1500
4100
ENDCHAR
STARTCHAR plus
ENCODING 43
SWIDTH 301 0
DWIDTH 8 0
BBX 7 7 1 1
BITMAP
0040
0140
0200
7FF4
0600
0500
0800
ENDCHAR
STARTCHAR comma
ENCODING 44
SWIDTH 112 0
DWIDTH 3 0
BBX 3 4 0 -2
BITMAP
24
24
20
40
ENDCHAR
STARTCHAR hyphen
ENCODING 45
SWIDTH 245 0
DWIDTH 7 0
BBX 5 1 1 4
BITMAP
AFC0
ENDCHAR
STARTCHAR period
ENCODING 46
SWIDTH 112 0
DWIDTH 3 0
BBX 2 2 1 0
BITMAP
90
80
ENDCHAR
STARTCHAR slash
ENCODING 47
SWIDTH 210 0
DWIDTH 6 0
BBX 12 19 -1 -1
BITMAP
000001
000008
000014
000020
000050
000080
000200
000100
000800
001400
002000
005000
008000
020000
010000
080000
140000
200000
500000
ENDCHAR
STARTCHAR zero
ENCODING 48
SWIDTH 349 0
DWIDTH 10 0
BBX 9 9 1 0
BITMAP
01BD00
060B00
140340
200240
600200
600200
600500
341400
1F9000
ENDCHAR
STARTCHAR one
ENCODING 49
SWIDTH 189 0
DWIDTH 5 0
BBX 6 9 1 0
BITMAP
0590
3B80
0300
0900
0C00
2800
3400
7000
9000
ENDCHAR
STARTCHAR two
ENCODING 50
SWIDTH 277 0
DWIDTH 8 0
BBX 8 9 0 0
BITMAP
01B8
050A
040A
0009
0018
0050
0140
1904
5BF4
ENDCHAR
STARTCHAR three
ENCODING 51
SWIDTH 253 0
DWIDTH 7 0
BBX 9 14 -2 -5
BITMAP
001B40
0041C0
0000C0
000180
000600
006400
010A00
000340
000240
000240
000200
000900
506400
2E8000
ENDCHAR
STARTCHAR four
ENCODING 52
SWIDTH 363 0
DWIDTH 10 0
BBX 12 15 1 0
BITMAP
000001
000008
000074
0001A0
0004C0
005180
014300
050600
140900
251850
56FF80
003400
007000
00A000
009000
ENDCHAR
STARTCHAR five
ENCODING 53
SWIDTH 250 0
DWIDTH 7 0
BBX 10 14 -2 -5
BITMAP
001FF0
002540
005000
004000
008000
00B400
002D00
000A00
000600
000600
000900
000800
906000
7E4000
ENDCHAR
STARTCHAR six
ENCODING 54
SWIDTH 296 0
DWIDTH 8 0
BBX 11 14 1 0
BITMAP
0002F8
001908
005000
014000
060000
080000
1AB400
281C00
300C00
600C00
901800
A02000
705000
2E4000
ENDCHAR
STARTCHAR seven
ENCODING 55
SWIDTH 326 0
DWIDTH 9 0
BBX 11 14 0 -5
BITMAP
02FFA4
090060
040090
000180
000200
000800
002400
006000
018000
070000
0D0000
280000
700000
900000
ENDCHAR
STARTCHAR eight
ENCODING 56
SWIDTH 305 0
DWIDTH 9 0
BBX 9 14 1 0
BITMAP
000400
005740
0141C0
024080
028140
01D500
00B400
052800
200D00
600A00
900900
900800
B01400
2E8000
ENDCHAR
STARTCHAR nine
ENCODING 57
SWIDTH 304 0
DWIDTH 9 0
BBX 10 13 -1 -4
BITMAP
001640
0040C0
0200D0
0600D0
0900C0
0902C0
0B0B80
02E740
000600
000800
002400
419000
BE0000
ENDCHAR
STARTCHAR colon
ENCODING 58
SWIDTH 156 0
DWIDTH 4 0
BBX 4 7 0 0
BITMAP
06
09
00
00
00
30
60
ENDCHAR
STARTCHAR semicolon
ENCODING 59
SWIDTH 156 0
DWIDTH 4 0
BBX 4 9 0 -2
BITMAP
06
09
00
00
00
20
24
20
40
ENDCHAR
STARTCHAR less
ENCODING 60
SWIDTH 301 0
DWIDTH 8 0
BBX 7 6 1 1
BITMAP
0004
0190
2900
7900
0790
00A0
ENDCHAR
STARTCHAR equal
ENCODING 61
SWIDTH 301 0
DWIDTH 8 0
BBX 7 4 1 2
BITMAP
3FFC
0000
0000
BFF0
ENDCHAR
STARTCHAR greater
ENCODING 62
SWIDTH 301 0
DWIDTH 8 0
BBX 7 6 1 1
BITMAP
1000
0A00
01A0
00A4
1A40
9000
ENDCHAR
STARTCHAR question
ENCODING 63
SWIDTH 285 0
DWIDTH 8 0
BBX 10 15 1 0
BITMAP
001B80
0091D0
010060
000060
000090
000080
000600
001400
018000
060000
090000
0A0000
000000
300000
600000
ENDCHAR
STARTCHAR at
ENCODING 64
SWIDTH 492 0
DWIDTH 14 0
BBX 12 13 1 -3
BITMAP
006FD0
024068
080009
241A82
204142
514302
924A05
925A04
91D790
600100
340004
1D0050
02EA40
ENDCHAR
STARTCHAR A
ENCODING 65
SWIDTH 996 0
DWIDTH 28 0
BBX 27 18 1 0
BITMAP
00000001AFE900
00000005001AF8
00000010000078
000000400001A0
00000040000550
00000040001480
00000000005140
00000000014200
00000000050200
00000000140600
0000002FFFFD00
00000000800900
10000002000C00
50000014000C00
90000050000C00
60000600000D04
3D45A400000A50
1BFA4000000780
ENDCHAR
STARTCHAR B
ENCODING 66
SWIDTH 638 0
DWIDTH 18 0
BBX 18 19 1 0
BITMAP
0000001400
00005BE800
0005050B40
00100802C0
00402401D0
00002000D0
00006000C0
0000900240
0000C1A900
0001807800
0002400E00
0002000700
0005000340
0008000280
0020000240
A540000340
2D00000600
0690001800
001A555000
ENDCHAR
STARTCHAR C
ENCODING 67
SWIDTH 557 0
DWIDTH 16 0
BBX 16 18 2 0
BITMAP
00015AA8
0014001E
00800005
02000004
08000000
24000000
30000000
60000000
A0000000
D0000000
D0000000
D0000000
E0000000
B0000040
74000080
2C000180
0B400700
00A96900
ENDCHAR
STARTCHAR D
ENCODING 68
SWIDTH 799 0
DWIDTH 22 0
BBX 22 19 1 0
BITMAP
000000001000
0006AF914000
001400BE0000
0040002B8000
00400060A000
010000902800
000001800D00
000002400700
000003000340
0000060001C0
0000090000C0
00000C0000D0
0000180000D0
0000200000C0
000050000080
000080000140
1BEA00000200
801AE4001400
E5501AAA4000
ENDCHAR
STARTCHAR E
ENCODING 69
SWIDTH 494 0
DWIDTH 14 0
BBX 15 18 1 0
BITMAP
00005690
00050074
00180010
00280000
001C0000
000F4000
0007D000
00500000
01000000
08000000
24000000
30000000
70000000
70000040
74000100
38000200
1E001C00
02A55000
ENDCHAR
STARTCHAR F
ENCODING 70
SWIDTH 626 0
DWIDTH 18 0
BBX 22 18 1 0
BITMAP
00000ABFFE50
000050005050
000100004000
000100014000
000400030000
000000060000
000000090000
0000000C0000
000000180000
00007FFFD000
000000240000
000000300000
100000900000
500000800000
900002000000
600008000000
380050000000
0BEA40000000
ENDCHAR
STARTCHAR G
ENCODING 71
SWIDTH 571 0
DWIDTH 16 0
BBX 21 23 -1 -5
BITMAP
00000006FE00
000000650740
000001400240
000008000200
000024000100
000050000000
000080000000
000180000000
000240000000
000300000000
000700000000
000700014000
000700034000
0003400B0000
0001D05A0000
1400550C0000
500000180000
900000200000
D00000500000
D00001800000
A00005000000
380014000000
0A9540000000
ENDCHAR
STARTCHAR H
ENCODING 72
SWIDTH 865 0
DWIDTH 24 0
BBX 32 19 1 0
BITMAP
00000000000001BC
00001ABA40000509
0000400240001000
0001000800004000
0001002400010000
0004003000010000
0000006000080000
0000009000140000
000000C000200000
0000018000600000
001AFF9000900000
01A4036AE9C00000
0900060016E00000
2000090002800000
5000180002400000
9000200003000000
9000900007040000
7406000007500000
1FE4000003800000
ENDCHAR
STARTCHAR I
ENCODING 73
SWIDTH 554 0
DWIDTH 16 0
BBX 20 18 1 0
BITMAP
000000006D
0000000A60
0000006080
0000014180
0000050200
0000040300
0000100600
0000100900
0000100C00
0000101800
0000102000
0000102000
0400059000
2000014000
6000060000
A000180000
3901900000
1BF9000000
ENDCHAR
STARTCHAR J
ENCODING 74
SWIDTH 634 0
DWIDTH 18 0
BBX 23 23 0 -5
BITMAP
0000000001B8
000000001990
000000009140
000000020200
000000080500
000000100800
000000100C00
000000401800
000000402400
000000403000
000000406000
000000109000
00050000D000
005000024000
010000020000
040000090000
200000180000
500000200000
800000800000
C00002000000
D00018000000
740190000000
1FF900000000
ENDCHAR
STARTCHAR K
ENCODING 75
SWIDTH 936 0
DWIDTH 26 0
BBX 27 18 1 0
BITMAP
000006BE9001B8
00006401901918
00014002405004
00010006014000
00040009040000
0004000C100000
00040018500000
00040029400000
00040026400000
00000031800000
00000070C00000
04000050900000
20000080600000
50000140340000
90000200280000
600008000D0000
38005000078040
1BA9000001B900
ENDCHAR
STARTCHAR L
ENCODING 76
SWIDTH 657 0
DWIDTH 18 0
BBX 20 18 1 0
BITMAP
00000002F8
000000141D
0000005009
0000008004
0000020000
0000020000
0000050000
00000C0000
0000180000
0000280000
0000340000
0000700000
0000A00000
0000C00000
6FA6800000
95BF000040
8005A40600
6A401BF800
ENDCHAR
STARTCHAR M
ENCODING 77
SWIDTH 1219 0
DWIDTH 34 0
BBX 35 18 1 0
BITMAP
0000001ABE90000008
0000014001AE800070
0000010000028002D0
000004000007000680
00000400000A001300
000004000019004900
000000000058020C00
000000000058042800
000000000224103000
040000000830507000
200000001461406000
600000005092009000
6000000140C4009000
A000000900D400D000
7000002401A000D000
3800018001D0009040
1E406900028000B540
06FE90000200003900
ENDCHAR
STARTCHAR N
ENCODING 78
SWIDTH 990 0
DWIDTH 28 0
BBX 35 18 1 0
BITMAP
00001BF800000001F4
0000501B9000000A58
00004001E000002404
00000000A800005000
000000008900008000
000000008340010000
0000000141C0010000
000000010090040000
000000010070040000
000000050024040000
10000004001C100000
200000040009100000
500000200006100000
900000400003500000
600001400002800000
340009000001C00000
1E55A4000000800000
06FE40000000800000
ENDCHAR
STARTCHAR O
ENCODING 79
SWIDTH 606 0
DWIDTH 17 0
BBX 17 18 2 0
BITMAP
0001BF8000
001901B400
0090002C00
0200000A00
0800000700
1400000300
2000000340
6000000300
9000000300
D000000200
C000000600
D000000800
D000001800
A000002000
7400008000
3C00020000
0F90580000
01BE900000
ENDCHAR
STARTCHAR P
ENCODING 80
SWIDTH 783 0
DWIDTH 22 0
BBX 24 19 1 0
BITMAP
000000000500
0000001ABE40
0000014091E0
000004018034
00001002001C
00000006000D
000040090009
0000000D0009
0000001C000C
000000580018
000000740060
040000340180
10000096A500
500000800000
800002400000
900005000000
600004000000
290050000000
07E900000000
ENDCHAR
STARTCHAR Q
ENCODING 81
SWIDTH 563 0
DWIDTH 16 0
BBX 19 23 2 -5
BITMAP
00055A4000
001001D000
0140007400
0100002800
0800001C00
0400001C00
2400001C00
2000001C00
3000001800
3000002400
3000003000
2400009000
1D00018000
0790070000
0000180000
0000A00000
501A400000
6F90000000
0290000000
001D000000
0002E00004
00002E4064
000001BF80
ENDCHAR
STARTCHAR R
ENCODING 82
SWIDTH 854 0
DWIDTH 24 0
BBX 23 19 1 0
BITMAP
000000001400
0000005AED00
000005420280
0000140600D0
0000400C00A0
000000180060
000000240060
000000300090
000000600140
000000A01500
000000C75000
000001830000
040002434000
100002028000
40000901C000
80001400D000
900050007000
740140002904
1BA400000BE0
ENDCHAR
STARTCHAR S
ENCODING 83
SWIDTH 480 0
DWIDTH 13 0
BBX 14 18 1 0
BITMAP
00006B80
000140A0
00020060
00060050
00060000
00034000
0002C000
0000E000
00007400
00002C00
00000D00
00000600
20000700
60000200
A0000600
70000800
29001000
06AA4000
ENDCHAR
STARTCHAR T
ENCODING 84
SWIDTH 577 0
DWIDTH 16 0
BBX 22 18 1 0
BITMAP
00006FFE9400
00064005AF90
001400001550
001000009000
004000014000
004000020000
004000090000
0000000C0000
000000280000
000000340000
000000700000
000000900000
100000C00000
500002400000
900006000000
600018000000
390150000000
1BE900000000
ENDCHAR
STARTCHAR U
ENCODING 85
SWIDTH 752 0
DWIDTH 21 0
BBX 22 18 2 0
BITMAP
006FE4000090
06401D000180
140010000340
100050000600
400140000900
400200001C00
400800002400
401800007000
40240000A000
003000019000
00600001C000
009000058000
009000168000
00D000124000
00D000434000
00E001034100
00B418039400
002F9001E000
ENDCHAR
STARTCHAR V
ENCODING 86
SWIDTH 661 0
DWIDTH 19 0
BBX 19 18 2 0
BITMAP
01BE0002E0
0502C00478
1400A0001C
100030000C
400024000C
4000180008
4000180014
0000180020
0000080050
0000080080
0000180200
0000180400
0000141000
0000248000
0000320000
0000780000
0000A00000
0000800000
ENDCHAR
STARTCHAR W
ENCODING 87
SWIDTH 822 0
DWIDTH 23 0
BBX 24 18 2 0
BITMAP
02FE0000001D
090780004017
1001C0024003
4000D0050003
4000901C0003
400050280006
400060580009
000051580008
000051180020
0000541C0050
0000840C0040
0000900C0200
0000900C0800
0001800D1000
0002400D4000
000200094000
0006000E0000
000400080000
ENDCHAR
STARTCHAR X
ENCODING 88
SWIDTH 813 0
DWIDTH 23 0
BBX 23 18 1 0
BITMAP
00002D0001B4
000046001A68
000143006008
000003414014
000002460000
000002480000
000001940000
000001A00000
000000C00000
000001D00000
000001900000
000004600000
000004340000
100020280000
2000800D0000
600200070010
B5680002D080
2F9000007E40
ENDCHAR
STARTCHAR Y
ENCODING 89
SWIDTH 662 0
DWIDTH 19 0
BBX 25 22 0 -4
BITMAP
00000680000240
000010C0000700
000040C0000D00
00000180001C00
00000280003400
0000034000B000
0000030001D000
0000060003C000
00000900074000
00000C001A0000
000018005D0000
00501801680000
05001D19700000
24000BE0900000
60000001800000
90000003000000
90000009000000
90000024000000
A0000090000000
74000640000000
1E406800000000
06FE4000000000
ENDCHAR
STARTCHAR Z
ENCODING 90
SWIDTH 625 0
DWIDTH 18 0
BBX 19 18 1 0
BITMAP
00006FE904
00024016F4
0001000090
0004000200
0004000800
0000002000
0000008000
0000020000
0000080000
0000200000
0001800000
0006000000
0018000000
0060000040
0180000100
0600000500
1FA5006400
605BFF9000
ENDCHAR
STARTCHAR bracketleft
ENCODING 91
SWIDTH 318 0
DWIDTH 9 0
BBX 10 20 2 -3
BITMAP
003550
007000
00A000
009000
00C000
01C000
018000
024000
030000
070000
060000
090000
0C0000
1C0000
180000
240000
340000
700000
700000
B54000
ENDCHAR
STARTCHAR backslash
ENCODING 92
SWIDTH 212 0
DWIDTH 6 0
BBX 4 19 1 -1
BITMAP
40
80
80
80
40
50
10
20
20
20
14
04
08
08
08
05
01
02
02
ENDCHAR
STARTCHAR bracketright
ENCODING 93
SWIDTH 339 0
DWIDTH 9 0
BBX 10 20 0 -3
BITMAP
0005B0
000070
0000A0
0000D0
0000C0
000180
000280
000240
000300
000700
000600
000900
000C00
001C00
001800
002400
003000
007000
006000
55D000
ENDCHAR
STARTCHAR asciicircum
ENCODING 94
SWIDTH 272 0
DWIDTH 8 0
BBX 6 6 1 5
BITMAP
0180
03C0
0AD0
18A0
2070
4020
ENDCHAR
STARTCHAR underscore
ENCODING 95
SWIDTH 356 0
DWIDTH 10 0
BBX 9 1 0 -2
BITMAP
AAA540
ENDCHAR
STARTCHAR grave
ENCODING 96
SWIDTH 155 0
DWIDTH 4 0
BBX 3 3 1 9
BITMAP
40
E0
14
ENDCHAR
STARTCHAR a
ENCODING 97
SWIDTH 294 0
DWIDTH 8 0
BBX 7 7 1 0
BITMAP
06F8
2824
6020
9090
C1C0
D5C4
A490
ENDCHAR
STARTCHAR b
ENCODING 98
SWIDTH 247 0
DWIDTH 7 0
BBX 14 21 1 0
BITMAP
00001BD0
00005020
00010000
00040000
00140000
00100000
00400000
00400000
01000000
02000000
05000000
08000000
08000000
24000000
22D00000
74600000
60600000
90500000
C0800000
C2000000
B8000000
ENDCHAR
STARTCHAR c
ENCODING 99
SWIDTH 203 0
DWIDTH 6 0
BBX 5 7 1 0
BITMAP
0680
1040
5000
8000
C000
C100
B800
ENDCHAR
STARTCHAR d
ENCODING 100
SWIDTH 285 0
DWIDTH 8 0
BBX 17 21 1 0
BITMAP
0000000B80
0000006480
0000014000
0000010000
0000040000
0000100000
0000100000
0000400000
0000400000
0001000000
0001000000
0008000000
0008000000
0014000000
0570000000
2030000000
5060000000
80D0000000
C1D0000000
C5C4000000
A4A0000000
ENDCHAR
STARTCHAR e
ENCODING 101
SWIDTH 206 0
DWIDTH 6 0
BBX 5 7 1 0
BITMAP
0640
1180
5500
9000
C000
C100
B800
ENDCHAR
STARTCHAR f
ENCODING 102
SWIDTH 156 0
DWIDTH 4 0
BBX 23 28 -8 -7
BITMAP
0000000002F0
000000001418
000000005004
000000014000
000000020000
000000040000
000000080000
000000240000
000000200000
000000500000
000000800000
000001800000
000002400000
000003000000
00002FE80000
000006000000
000009000000
00000C000000
000018000000
000024000000
000020000000
000090000000
000080000000
000200000000
000500000000
000400000000
801000000000
A94000000000
ENDCHAR
STARTCHAR g
ENCODING 103
SWIDTH 210 0
DWIDTH 6 0
BBX 10 15 -3 -7
BITMAP
000050
001F40
005240
008200
008100
00C400
00B800
000800
000C00
200A00
C00700
C00300
D00300
780900
1BE400
ENDCHAR
STARTCHAR h
ENCODING 104
SWIDTH 292 0
DWIDTH 8 0
BBX 16 21 0 0
BITMAP
000001BD
00000505
00001000
00004000
00010000
00010000
00080000
00140000
00200000
00500000
00800000
00800000
02400000
02000000
061A0000
09490000
0D0C0000
18180000
28240000
30250000
60280000
ENDCHAR
STARTCHAR i
ENCODING 105
SWIDTH 149 0
DWIDTH 4 0
BBX 5 11 1 0
BITMAP
0040
0100
0500
0000
1800
6400
2000
5000
8000
C400
E000
ENDCHAR
STARTCHAR j
ENCODING 106
SWIDTH 136 0
DWIDTH 4 0
BBX 15 18 -9 -7
BITMAP
00000004
00000010
00000040
00000000
00000140
00000640
00000300
00000600
00000900
00000C00
00001400
00002000
00006000
00008000
00014000
40050000
50140000
2A400000
ENDCHAR
STARTCHAR k
ENCODING 107
SWIDTH 259 0
DWIDTH 7 0
BBX 16 21 0 0
BITMAP
000001B8
00000909
00001004
00004000
00010000
00040000
00040000
00200000
00500000
00800000
00800000
02000000
02000000
05000000
09680000
090C0000
18240000
2A400000
26400000
31800000
60A40000
ENDCHAR
STARTCHAR l
ENCODING 108
SWIDTH 134 0
DWIDTH 4 0
BBX 13 21 1 0
BITMAP
00001B40
0000A540
00024000
00050000
00040000
00100000
00400000
00400000
01000000
01000000
05000000
08000000
04000000
20000000
20000000
60000000
90000000
80000000
C0000000
C4000000
E0000000
ENDCHAR
STARTCHAR m
ENCODING 109
SWIDTH 413 0
DWIDTH 12 0
BBX 10 7 1 0
BITMAP
247060
653030
343460
306090
5090C0
80C180
814180
ENDCHAR
STARTCHAR n
ENCODING 110
SWIDTH 291 0
DWIDTH 8 0
BBX 8 7 0 0
BITMAP
091A
1949
090C
0C18
1424
3031
6028
ENDCHAR
STARTCHAR o
ENCODING 111
SWIDTH 225 0
DWIDTH 6 0
BBX 5 7 1 0
BITMAP
0B80
21C0
40C0
8080
8140
C500
B800
ENDCHAR
STARTCHAR p
ENCODING 112
SWIDTH 261 0
DWIDTH 7 0
BBX 8 15 -1 -7
BITMAP
01C0
018A
0143
0203
0506
0809
0828
1F90
2000
2000
6000
9000
8000
C000
E400
ENDCHAR
STARTCHAR q
ENCODING 113
SWIDTH 269 0
DWIDTH 8 0
BBX 8 14 0 -7
BITMAP
015A
0409
1418
3024
6070
7190
38C0
0180
0240
0300
0300
0600
0A00
0A40
ENDCHAR
STARTCHAR r
ENCODING 114
SWIDTH 195 0
DWIDTH 5 0
BBX 6 7 1 0
BITMAP
65D0
6500
2400
3000
6000
9000
C000
ENDCHAR
STARTCHAR s
ENCODING 115
SWIDTH 188 0
DWIDTH 5 0
BBX 5 7 0 0
BITMAP
0580
0C40
0D00
0700
0240
8240
9500
ENDCHAR
STARTCHAR t
ENCODING 116
SWIDTH 171 0
DWIDTH 5 0
BBX 5 11 1 0
BITMAP
0140
0200
0500
0C00
6F80
2400
3000
6000
9000
9100
7400
ENDCHAR
STARTCHAR u
ENCODING 117
SWIDTH 299 0
DWIDTH 8 0
BBX 7 7 1 0
BITMAP
1808
6424
6070
90A0
C190
C494
E074
ENDCHAR
STARTCHAR v
ENCODING 118
SWIDTH 271 0
DWIDTH 8 0
BBX 7 7 1 0
BITMAP
6464
2414
2420
3020
3080
6100
A400
ENDCHAR
STARTCHAR w
ENCODING 119
SWIDTH 369 0
DWIDTH 10 0
BBX 9 7 1 0
BITMAP
A01280
308080
208080
258040
358100
318100
20E400
ENDCHAR
STARTCHAR x
ENCODING 120
SWIDTH 263 0
DWIDTH 7 0
BBX 8 7 0 0
BITMAP
091D
1651
0640
0300
0600
5584
D0A4
ENDCHAR
STARTCHAR y
ENCODING 121
SWIDTH 280 0
DWIDTH 8 0
BBX 13 14 -5 -7
BITMAP
00018080
00064240
00020300
00090A00
00081900
000C4C00
000A1800
00002400
00002000
40005000
80008000
C0020000
90040000
2A500000
ENDCHAR
STARTCHAR z
ENCODING 122
SWIDTH 238 0
DWIDTH 7 0
BBX 7 7 0 0
BITMAP
0BE8
1020
0040
0100
0400
6010
AF90
ENDCHAR
STARTCHAR braceleft
ENCODING 123
SWIDTH 291 0
DWIDTH 8 0
BBX 9 21 2 -3
BITMAP
000140
002400
009000
00C000
018000
018000
018000
024000
020000
050000
380000
0C0000
0D0000
0C0000
180000
340000
700000
A00000
A00000
600000
190000
ENDCHAR
STARTCHAR bar
ENCODING 124
SWIDTH 162 0
DWIDTH 5 0
BBX 1 25 2 -7
BITMAP
80
80
80
80
80
80
80
80
80
80
80
80
80
80
80
80
80
80
80
80
80
80
80
80
80
ENDCHAR
STARTCHAR braceright
ENCODING 125
SWIDTH 285 0
DWIDTH 8 0
BBX 9 21 0 -3
BITMAP
001400
000700
000240
000240
000300
000600
000900
000C00
001800
001800
000A00
001800
002000
009000
009000
00C000
00C000
01C000
024000
060000
540000
ENDCHAR
STARTCHAR asciitilde
ENCODING 126
SWIDTH 383 0
DWIDTH 11 0
BBX 9 2 1 4
BITMAP
1B9140
51BE00
ENDCHAR
STARTCHAR space.dup1
ENCODING 160
SWIDTH 150 0
DWIDTH 4 0
BBX 1 1 0 0
BITMAP
00
ENDCHAR
STARTCHAR exclamdown
ENCODING 161
SWIDTH 189 0
DWIDTH 5 0
BBX 7 16 -2 -9
BITMAP
000C
0018
0000
0000
0050
0080
0040
0200
0200
0900
0C00
1800
3400
7000
D000
4000
ENDCHAR
STARTCHAR cent
ENCODING 162
SWIDTH 194 0
DWIDTH 5 0
BBX 6 13 0 -2
BITMAP
0010
0050
02E0
0860
1100
2200
6500
6800
7400
1000
1000
4000
4000
ENDCHAR
STARTCHAR sterling
ENCODING 163
SWIDTH 344 0
DWIDTH 10 0
BBX 10 9 0 0
BITMAP
0007C0
001490
002000
005000
06D500
008000
014000
1B4040
95BE00
ENDCHAR
STARTCHAR currency
ENCODING 164
SWIDTH 344 0
DWIDTH 10 0
BBX 10 9 0 0
BITMAP
050050
02BA40
024600
080200
080200
080200
080800
1BE800
500500
ENDCHAR
STARTCHAR yen
ENCODING 165
SWIDTH 309 0
DWIDTH 9 0
BBX 8 9 1 0
BITMAP
641A
0850
0840
0900
6FD0
0C00
AF80
1400
2400
ENDCHAR
STARTCHAR brokenbar
ENCODING 166
SWIDTH 162 0
DWIDTH 5 0
BBX 1 25 2 -7
BITMAP
80
80
80
80
80
80
80
80
80
00
00
00
00
00
00
00
80
80
80
80
80
80
80
80
80
ENDCHAR
STARTCHAR section
ENCODING 167
SWIDTH 395 0
DWIDTH 11 0
BBX 16 22 -2 -7
BITMAP
00000150
00006968
00016009
00025008
00098004
00088000
000C9000
000C9000
000D6000
00093000
000A3000
00062400
00031800
00035800
00025C00
00019C00
14019800
20019800
60016000
70015000
2D064000
06A40000
ENDCHAR
STARTCHAR dieresis
ENCODING 168
SWIDTH 174 0
DWIDTH 5 0
BBX 5 2 0 9
BITMAP
2140
6300
ENDCHAR
STARTCHAR copyright
ENCODING 169
SWIDTH 331 0
DWIDTH 9 0
BBX 8 8 1 3
BITMAP
0040
0014
1165
1402
5801
5648
2424
0640
ENDCHAR
STARTCHAR ordfeminine
ENCODING 170
SWIDTH 226 0
DWIDTH 6 0
BBX 5 4 1 5
BITMAP
1A40
2200
5200
6600
ENDCHAR
STARTCHAR guillemotleft
ENCODING 171
SWIDTH 289 0
DWIDTH 8 0
BBX 9 7 0 0
BITMAP
005340
025D00
087000
62C000
35E000
0D7800
062C00
ENDCHAR
STARTCHAR logicalnot
ENCODING 172
SWIDTH 265 0
DWIDTH 7 0
BBX 7 4 0 3
BITMAP
7FF8
0024
0030
0060
ENDCHAR
STARTCHAR registered
ENCODING 174
SWIDTH 331 0
DWIDTH 9 0
BBX 8 7 1 3
BITMAP
0054
1595
1112
5541
5884
2414
1A90
ENDCHAR
STARTCHAR degree
ENCODING 176
SWIDTH 104 0
DWIDTH 3 0
BBX 3 3 2 8
BITMAP
68
44
64
ENDCHAR
STARTCHAR plusminus
ENCODING 177
SWIDTH 301 0
DWIDTH 8 0
BBX 8 8 0 0
BITMAP
0020
0050
0080
1FFD
0080
0100
0100
6AA0
ENDCHAR
STARTCHAR twosuperior
ENCODING 178
SWIDTH 215 0
DWIDTH 6 0
BBX 5 5 1 4
BITMAP
0600
1140
0200
0400
6900
ENDCHAR
STARTCHAR threesuperior
ENCODING 179
SWIDTH 190 0
DWIDTH 5 0
BBX 4 5 1 4
BITMAP
15
05
19
02
54
ENDCHAR
STARTCHAR acute
ENCODING 180
SWIDTH 157 0
DWIDTH 4 0
BBX 4 3 0 8
BITMAP
0A
2D
60
ENDCHAR
STARTCHAR mu
ENCODING 181
SWIDTH 324 0
DWIDTH 9 0
BBX 10 11 -1 -4
BITMAP
005050
00C0C0
024280
030640
060700
0A1300
1A8280
240000
300000
700000
600000
ENDCHAR
STARTCHAR paragraph
ENCODING 182
SWIDTH 392 0
DWIDTH 11 0
BBX 15 16 -3 -7
BITMAP
000006A4
0000BC90
0002F8C0
000BF4C0
000FF180
001FE240
001FE300
000FD600
0002C900
00008C00
00025800
00023000
60056000
90098000
601A0000
2AA40000
ENDCHAR
STARTCHAR periodcentered
ENCODING 183
SWIDTH 112 0
DWIDTH 3 0
BBX 2 2 1 3
BITMAP
90
80
ENDCHAR
STARTCHAR cedilla
ENCODING 184
SWIDTH 115 0
DWIDTH 3 0
BBX 2 3 1 -3
BITMAP
50
50
40
ENDCHAR
STARTCHAR onesuperior
ENCODING 185
SWIDTH 174 0
DWIDTH 5 0
BBX 3 5 1 4
BITMAP
7C
14
20
20
50
ENDCHAR
STARTCHAR ordmasculine
ENCODING 186
SWIDTH 178 0
DWIDTH 5 0
BBX 4 4 1 5
BITMAP
1C
55
84
50
ENDCHAR
STARTCHAR guillemotright
ENCODING 187
SWIDTH 276 0
DWIDTH 8 0
BBX 8 7 -1 0
BITMAP
0930
0728
028A
0086
0614
1450
5140
ENDCHAR
STARTCHAR onequarter
ENCODING 188
SWIDTH 435 0
DWIDTH 12 0
BBX 11 11 1 -1
BITMAP
000010
064080
060140
090500
081404
142020
208060
0200C0
081B90
140200
500000
ENDCHAR
STARTCHAR onehalf
ENCODING 189
SWIDTH 434 0
DWIDTH 12 0
BBX 11 11 1 -1
BITMAP
000010
064090
060140
050500
0814A4
142118
208014
020050
080100
141A90
500000
ENDCHAR
STARTCHAR threequarters
ENCODING 190
SWIDTH 476 0
DWIDTH 13 0
BBX 12 11 1 -1
BITMAP
000004
064014
014050
060140
018205
014818
552054
008224
0141A0
050050
080000
ENDCHAR
STARTCHAR questiondown
ENCODING 191
SWIDTH 285 0
DWIDTH 8 0
BBX 10 14 -2 -7
BITMAP
000060
000090
000000
000700
000200
000500
006000
024000
180000
200000
600000
600400
382000
1B8000
ENDCHAR
STARTCHAR Agrave
ENCODING 192
SWIDTH 996 0
DWIDTH 28 0
BBX 27 21 1 0
BITMAP
00000000000180
00000000000064
00000000000000
00000001AFE900
00000005001AF8
00000010000078
000000400001A0
00000040000550
00000040001480
00000000005140
00000000014200
00000000050200
00000000140600
0000002FFFFD00
00000000800900
10000002000C00
50000014000C00
90000050000C00
60000600000D04
3D45A400000A50
1BFA4000000780
ENDCHAR
STARTCHAR Aacute
ENCODING 193
SWIDTH 996 0
DWIDTH 28 0
BBX 28 21 1 0
BITMAP
0000000000001D
00000000000050
00000000000000
00000001AFE900
00000005001AF8
00000010000078
000000400001A0
00000040000550
00000040001480
00000000005140
00000000014200
00000000050200
00000000140600
0000002FFFFD00
00000000800900
10000002000C00
50000014000C00
90000050000C00
60000600000D04
3D45A400000A50
1BFA4000000780
ENDCHAR
STARTCHAR Acircumflex
ENCODING 194
SWIDTH 996 0
DWIDTH 28 0
BBX 29 21 1 0
BITMAP
0000000000000500
0000000000004240
0000000000000000
00000001AFE90000
00000005001AF800
0000001000007800
000000400001A000
0000004000055000
0000004000148000
0000000000514000
0000000001420000
0000000005020000
0000000014060000
0000002FFFFD0000
0000000080090000
10000002000C0000
50000014000C0000
90000050000C0000
60000600000D0400
3D45A400000A5000
1BFA400000078000
ENDCHAR
STARTCHAR Atilde
ENCODING 195
SWIDTH 996 0
DWIDTH 28 0
BBX 30 21 1 0
BITMAP
000000000000B010
0000000000015D40
0000000000000100
00000001AFE90000
00000005001AF800
0000001000007800
000000400001A000
0000004000055000
0000004000148000
0000000000514000
0000000001420000
0000000005020000
0000000014060000
0000002FFFFD0000
0000000080090000
10000002000C0000
50000014000C0000
90000050000C0000
60000600000D0400
3D45A400000A5000
1BFA400000078000
ENDCHAR
STARTCHAR Adieresis
ENCODING 196
SWIDTH 996 0
DWIDTH 28 0
BBX 28 21 1 0
BITMAP
00000000000011
00000000000032
00000000000000
00000001AFE900
00000005001AF8
00000010000078
000000400001A0
00000040000550
00000040001480
00000000005140
00000000014200
00000000050200
00000000140600
0000002FFFFD00
00000000800900
10000002000C00
50000014000C00
90000050000C00
60000600000D04
3D45A400000A50
1BFA4000000780
ENDCHAR
STARTCHAR Aring
ENCODING 197
SWIDTH 996 0
DWIDTH 28 0
BBX 28 22 1 0
BITMAP
00000000000008
00000000000011
00000000000021
00000000000004
00000001AFE900
00000005001AF8
00000010000078
000000400001A0
00000040000550
00000040001480
00000000005140
00000000014200
00000000050200
00000000140600
0000002FFFFD00
00000000800900
10000002000C00
50000014000C00
90000050000C00
60000600000D04
3D45A400000A50
1BFA4000000780
ENDCHAR
STARTCHAR AE
ENCODING 198
SWIDTH 1271 0
DWIDTH 36 0
BBX 36 18 1 0
BITMAP
00000001AFE90015A9
00000005001AE85007
000000100000788002
000000400001A18001
00000040000561C000
00000040001490E000
000000000090807C00
000000000141850000
000000000502500000
000000001403800000
0000001FFFFF400000
000000008003000000
100000020007000000
500000180007000010
900000500007000020
600006400003800050
3D45A4000001D00180
0BFA400000006A5900
ENDCHAR
STARTCHAR Ccedilla
ENCODING 199
SWIDTH 557 0
DWIDTH 16 0
BBX 16 21 2 -3
BITMAP
000156A8
0014001E
00400005
06000004
08000000
24000000
30000000
60000000
90000000
D0000000
D0000000
D0000000
E0000000
B0000040
38000080
1E000240
07901A00
006A5000
00050000
00050000
00040000
ENDCHAR
STARTCHAR Egrave
ENCODING 200
SWIDTH 463 0
DWIDTH 13 0
BBX 14 21 1 0
BITMAP
00007400
00000A00
00000000
00015A40
001400D0
00200040
00600000
00700000
002D0000
001F4000
01500000
04000000
20000000
60000000
D0000000
D0000000
D0000100
D0000400
B0000800
38006400
0A954000
ENDCHAR
STARTCHAR Eacute
ENCODING 201
SWIDTH 463 0
DWIDTH 13 0
BBX 14 21 1 0
BITMAP
00000A00
00002400
00000000
00015A40
001400D0
00200040
00600000
00700000
002D0000
001F4000
01500000
04000000
20000000
60000000
D0000000
D0000000
D0000100
D0000400
B0000800
38006400
0A954000
ENDCHAR
STARTCHAR Ecircumflex
ENCODING 202
SWIDTH 463 0
DWIDTH 13 0
BBX 14 21 1 0
BITMAP
00000800
00000200
00000000
00015A40
001400D0
00200040
00600000
00700000
002D0000
001F4000
01500000
04000000
20000000
60000000
D0000000
D0000000
D0000100
D0000400
B0000800
38006400
0A954000
ENDCHAR
STARTCHAR Edieresis
ENCODING 203
SWIDTH 463 0
DWIDTH 13 0
BBX 14 21 1 0
BITMAP
00001100
00002200
00000000
00015A40
001400D0
00200040
00600000
00700000
002D0000
001F4000
01500000
04000000
20000000
60000000
D0000000
D0000000
D0000100
D0000400
B0000800
38006400
0A954000
ENDCHAR
STARTCHAR Igrave
ENCODING 204
SWIDTH 514 0
DWIDTH 14 0
BBX 20 22 0 0
BITMAP
0000000400
0000001E00
0000000280
0000000000
00000001AD
0000000A60
0000006080
0000014140
0000050300
0000040600
0000100900
0000100C00
0000100800
0000101400
0000102000
0000106000
0400049000
2000014000
9000050000
A000140000
7905900000
1BF9000000
ENDCHAR
STARTCHAR Iacute
ENCODING 205
SWIDTH 514 0
DWIDTH 14 0
BBX 20 21 0 0
BITMAP
00000000A0
0000000240
0000000000
00000001AD
0000000A60
0000006080
0000014140
0000050300
0000040600
0000100900
0000100C00
0000100800
0000101400
0000102000
0000106000
0400049000
2000014000
9000050000
A000140000
7905900000
1BF9000000
ENDCHAR
STARTCHAR Icircumflex
ENCODING 206
SWIDTH 514 0
DWIDTH 14 0
BBX 20 21 0 0
BITMAP
0000000050
0000000418
0000000000
00000001AD
0000000A60
0000006080
0000014140
0000050300
0000040600
0000100900
0000100C00
0000100800
0000101400
0000102000
0000106000
0400049000
2000014000
9000050000
A000140000
7905900000
1BF9000000
ENDCHAR
STARTCHAR Idieresis
ENCODING 207
SWIDTH 514 0
DWIDTH 14 0
BBX 20 21 0 0
BITMAP
0000000110
0000000320
0000000000
00000001AD
0000000A60
0000006080
0000014140
0000050300
0000040600
0000100900
0000100C00
0000100800
0000101400
0000102000
0000106000
0400049000
2000014000
9000050000
A000140000
7905900000
1BF9000000
ENDCHAR
STARTCHAR Eth
ENCODING 208
SWIDTH 800 0
DWIDTH 22 0
BBX 22 19 1 0
BITMAP
000000001000
0006AB914000
0014006E0000
004000218000
010000506000
010000C01800
000001800900
000003400300
000007000280
00000A0001C0
00006FFC00C0
00025C0000D0
0000180000D0
0000300000C0
000060000080
000080000140
1BEA00000100
801A90000400
E5501AA94000
ENDCHAR
STARTCHAR Ntilde
ENCODING 209
SWIDTH 796 0
DWIDTH 22 0
BBX 35 21 -4 0
BITMAP
00000000000A040000
00000000001F940000
000000000025900000
00001BE400000002E0
0000901A8000001964
00010001D000002004
00000000B400008000
000000015C00014000
000000014600020000
000000020240040000
0000000201C0040000
0000000500A0140000
000000080030100000
100000040024100000
40000010001C100000
80000050000D400000
C0000080000A400000
D00002000007400000
B00018000003400000
2E55A0000002400000
06FA40000001400000
ENDCHAR
STARTCHAR Ograve
ENCODING 210
SWIDTH 608 0
DWIDTH 17 0
BBX 17 21 2 0
BITMAP
0000A00000
0000190000
0000000000
0001BF8000
001901B400
0090002C00
0200000A00
0400000700
1400000340
2000000340
6000000340
9000000300
9000000300
D000000600
D000000800
D000000800
A000002000
7400005000
2D00024000
0F90180000
01BE900000
ENDCHAR
STARTCHAR Oacute
ENCODING 211
SWIDTH 608 0
DWIDTH 17 0
BBX 17 21 2 0
BITMAP
00000B0000
0000240000
0000000000
0001BF8000
001901B400
0090002C00
0200000A00
0400000700
1400000340
2000000340
6000000340
9000000300
9000000300
D000000600
D000000800
D000000800
A000002000
7400005000
2D00024000
0F90180000
01BE900000
ENDCHAR
STARTCHAR Ocircumflex
ENCODING 212
SWIDTH 608 0
DWIDTH 17 0
BBX 17 21 2 0
BITMAP
0000190000
0000528000
0000000000
0001BF8000
001901B400
0090002C00
0200000A00
0400000700
1400000340
2000000340
6000000340
9000000300
9000000300
D000000600
D000000800
D000000800
A000002000
7400005000
2D00024000
0F90180000
01BE900000
ENDCHAR
STARTCHAR Otilde
ENCODING 213
SWIDTH 608 0
DWIDTH 17 0
BBX 17 21 2 0
BITMAP
0000741000
0000AF8000
0000000000
0001BF8000
001901B400
0090002C00
0200000A00
0400000700
1400000340
2000000340
6000000340
9000000300
9000000300
D000000600
D000000800
D000000800
A000002000
7400005000
2D00024000
0F90180000
01BE900000
ENDCHAR
STARTCHAR Odieresis
ENCODING 214
SWIDTH 608 0
DWIDTH 17 0
BBX 17 21 2 0
BITMAP
0000114000
0000224000
0000000000
0001BF8000
001901B400
0090002C00
0200000A00
0400000700
1400000340
2000000340
6000000340
9000000300
9000000300
D000000600
D000000800
D000000800
A000002000
7400005000
2D00024000
0F90180000
01BE900000
ENDCHAR
STARTCHAR multiply
ENCODING 215
SWIDTH 301 0
DWIDTH 8 0
BBX 7 6 1 1
BITMAP
0814
0450
0140
0540
1480
6040
ENDCHAR
STARTCHAR Oslash
ENCODING 216
SWIDTH 605 0
DWIDTH 17 0
BBX 16 19 2 -1
BITMAP
0001BE54
001901B0
0090005C
02000109
08000407
14001003
20001003
60004003
90010003
D0050003
C0040006
D0100008
D0400018
A0400020
71000090
3D000240
1F905800
11BE9000
40000000
ENDCHAR
STARTCHAR Ugrave
ENCODING 217
SWIDTH 717 0
DWIDTH 20 0
BBX 22 21 1 0
BITMAP
000000040000
0000000A0000
000000004000
006BE4000090
06401D000180
140014000240
100050000600
400140000900
400200001C00
400900002400
400800007000
40240000A000
003000019000
00600001C000
00A00005C000
009000158000
00D000124000
00D000424000
00A001034100
00B418039800
002F9001E000
ENDCHAR
STARTCHAR Uacute
ENCODING 218
SWIDTH 717 0
DWIDTH 20 0
BBX 22 21 1 0
BITMAP
000000001000
000000019000
000000010000
006BE4000090
06401D000180
140014000240
100050000600
400140000900
400200001C00
400900002400
400800007000
40240000A000
003000019000
00600001C000
00A00005C000
009000158000
00D000124000
00D000424000
00A001034100
00B418039800
002F9001E000
ENDCHAR
STARTCHAR Ucircumflex
ENCODING 219
SWIDTH 718 0
DWIDTH 20 0
BBX 22 21 1 0
BITMAP
000000028000
000000146000
000000000000
006BE4000090
06401D000180
140014000240
100050000600
400140000900
400200001C00
400900002400
400800007000
40240000A000
003000019000
00600001C000
00A00005C000
009000168000
00D000124000
00D000424000
00A001034100
00B418039800
002F9001E000
ENDCHAR
STARTCHAR Udieresis
ENCODING 220
SWIDTH 718 0
DWIDTH 20 0
BBX 22 21 1 0
BITMAP
000000051000
000000099000
000000000000
006BE4000090
06401D000180
140014000240
100050000600
400140000900
400200001C00
400900002400
400800007000
40240000A000
003000019000
00600001C000
00A00005C000
009000158000
00D000124000
00D000424000
00A001034100
00B418039800
002F9001E000
ENDCHAR
STARTCHAR Yacute
ENCODING 221
SWIDTH 662 0
DWIDTH 19 0
BBX 25 25 0 -4
BITMAP
00000000074000
000000001D0000
00000000200000
00000680000240
000010C0000700
000040C0000D00
00000180001C00
00000280003400
0000034000B000
0000030001D000
0000060003C000
00000900074000
00000C001A0000
000018005D0000
00501801680000
05001D19700000
24000BE0900000
60000001800000
90000003000000
90000009000000
90000024000000
A0000090000000
74000640000000
1E406800000000
06FE4000000000
ENDCHAR
STARTCHAR Thorn
ENCODING 222
SWIDTH 745 0
DWIDTH 21 0
BBX 21 19 1 0
BITMAP
000000000500
000000002000
000000008000
000000014000
0000006BE400
000001461E00
000004090740
0000040D0280
0000001C01C0
0000002801C0
000000340180
040000600240
100000900900
400001C05400
800002540000
900005000000
600014000000
290050000000
07F900000000
ENDCHAR
STARTCHAR germandbls
ENCODING 223
SWIDTH 304 0
DWIDTH 9 0
BBX 24 27 -9 -7
BITMAP
000000000019
000000000007
000000000007
000000000006
00000001000D
000000040028
0000000400A0
000000200740
000000201D00
00000050A000
000000824000
0000008A0000
0000014C0000
0000020C0000
000002080000
000006060000
000009020000
000008018000
000018424000
000024BE0000
000020000000
000050000000
000080000000
000100000000
000500000000
801400000000
7A4000000000
ENDCHAR
STARTCHAR agrave
ENCODING 224
SWIDTH 294 0
DWIDTH 8 0
BBX 7 12 1 0
BITMAP
0040
01D0
0014
0000
0000
06F8
2824
6020
9090
C1C0
D5C4
A490
ENDCHAR
STARTCHAR aacute
ENCODING 225
SWIDTH 294 0
DWIDTH 8 0
BBX 7 11 1 0
BITMAP
002C
0074
0080
0000
06F8
2824
6020
9090
C1C0
D5C4
A490
ENDCHAR
STARTCHAR acircumflex
ENCODING 226
SWIDTH 294 0
DWIDTH 8 0
BBX 7 12 1 0
BITMAP
0060
0158
0000
0000
0000
06F8
2824
6020
9090
C1C0
D5C4
A490
ENDCHAR
STARTCHAR atilde
ENCODING 227
SWIDTH 294 0
DWIDTH 8 0
BBX 7 11 1 0
BITMAP
0284
04B4
0000
0000
06F8
2824
6020
9090
C1C0
D5C4
A490
ENDCHAR
STARTCHAR adieresis
ENCODING 228
SWIDTH 284 0
DWIDTH 8 0
BBX 7 11 1 0
BITMAP
0148
0258
0000
0000
06F8
2824
6020
9090
C1C0
D5C4
A490
ENDCHAR
STARTCHAR aring
ENCODING 229
SWIDTH 294 0
DWIDTH 8 0
BBX 7 11 1 0
BITMAP
0060
0060
00D0
0000
06F8
2824
6020
9090
C1C0
D5C4
A490
ENDCHAR
STARTCHAR ae
ENCODING 230
SWIDTH 363 0
DWIDTH 10 0
BBX 9 8 1 0
BITMAP
000400
05A680
1030C0
506540
80A000
C19000
C49040
A07900
ENDCHAR
STARTCHAR ccedilla
ENCODING 231
SWIDTH 203 0
DWIDTH 6 0
BBX 5 11 1 -4
BITMAP
0680
1040
5000
8000
C000
C100
B800
2000
2000
1000
4000
ENDCHAR
STARTCHAR egrave
ENCODING 232
SWIDTH 206 0
DWIDTH 6 0
BBX 5 12 1 0
BITMAP
0100
0740
0080
0000
0000
0640
1180
5500
9000
C000
C100
B800
ENDCHAR
STARTCHAR eacute
ENCODING 233
SWIDTH 206 0
DWIDTH 6 0
BBX 6 11 1 0
BITMAP
00A0
02D0
0600
0000
0640
1180
5500
9000
C000
C100
B800
ENDCHAR
STARTCHAR ecircumflex
ENCODING 234
SWIDTH 206 0
DWIDTH 6 0
BBX 6 12 1 0
BITMAP
0240
1590
0000
0000
0000
0640
1180
5500
9000
C000
C100
B800
ENDCHAR
STARTCHAR edieresis
ENCODING 235
SWIDTH 206 0
DWIDTH 6 0
BBX 6 11 1 0
BITMAP
0510
0850
0000
0000
0640
1180
5500
9000
C000
C100
B800
ENDCHAR
STARTCHAR igrave
ENCODING 236
SWIDTH 149 0
DWIDTH 4 0
BBX 4 12 1 0
BITMAP
04
1C
06
00
00
18
64
20
50
80
C4
E0
ENDCHAR
STARTCHAR iacute
ENCODING 237
SWIDTH 149 0
DWIDTH 4 0
BBX 5 11 1 0
BITMAP
01C0
0740
0900
0000
1800
6400
2000
5000
8000
C400
E000
ENDCHAR
STARTCHAR icircumflex
ENCODING 238
SWIDTH 149 0
DWIDTH 4 0
BBX 5 12 1 0
BITMAP
0900
1280
0000
0000
0000
1800
6400
2000
5000
8000
C400
E000
ENDCHAR
STARTCHAR idieresis
ENCODING 239
SWIDTH 149 0
DWIDTH 4 0
BBX 5 11 1 0
BITMAP
0440
18C0
0000
0000
1800
6400
2000
5000
8000
C400
E000
ENDCHAR
STARTCHAR eth
ENCODING 240
SWIDTH 234 0
DWIDTH 7 0
BBX 6 19 1 0
BITMAP
1000
4000
8000
9000
7000
1940
1D00
5200
0240
0180
0080
0080
0090
1090
5080
8080
C140
D200
B800
ENDCHAR
STARTCHAR ntilde
ENCODING 241
SWIDTH 291 0
DWIDTH 8 0
BBX 8 11 0 0
BITMAP
00A1
012D
0000
0000
091A
1949
090C
0C18
1424
3031
6028
ENDCHAR
STARTCHAR ograve
ENCODING 242
SWIDTH 225 0
DWIDTH 6 0
BBX 6 12 1 0
BITMAP
0100
0280
0050
0000
0000
0B80
21C0
40C0
8080
8140
C500
B800
ENDCHAR
STARTCHAR oacute
ENCODING 243
SWIDTH 225 0
DWIDTH 6 0
BBX 6 11 1 0
BITMAP
00A0
01D0
0200
0000
0B80
21C0
40C0
8080
8140
C500
B800
ENDCHAR
STARTCHAR ocircumflex
ENCODING 244
SWIDTH 225 0
DWIDTH 6 0
BBX 7 12 1 0
BITMAP
0180
0564
0000
0000
0000
0B80
21C0
40C0
8080
8140
C500
B800
ENDCHAR
STARTCHAR otilde
ENCODING 245
SWIDTH 225 0
DWIDTH 6 0
BBX 7 11 1 0
BITMAP
0A44
15E0
0000
0000
0B80
21C0
40C0
8080
8140
C500
B800
ENDCHAR
STARTCHAR odieresis
ENCODING 246
SWIDTH 225 0
DWIDTH 6 0
BBX 6 11 1 0
BITMAP
0510
0850
0000
0000
0B80
21C0
40C0
8080
8140
C500
B800
ENDCHAR
STARTCHAR divide
ENCODING 247
SWIDTH 301 0
DWIDTH 8 0
BBX 7 5 1 1
BITMAP
0180
0000
6AA4
0000
0500
ENDCHAR
STARTCHAR oslash
ENCODING 248
SWIDTH 225 0
DWIDTH 6 0
BBX 7 9 0 -1
BITMAP
0004
02E0
0470
1170
2120
2450
3440
2D00
4000
ENDCHAR
STARTCHAR ugrave
ENCODING 249
SWIDTH 299 0
DWIDTH 8 0
BBX 7 12 1 0
BITMAP
0040
00A0
0014
0000
0000
1808
6424
6070
90A0
C190
C494
E074
ENDCHAR
STARTCHAR uacute
ENCODING 250
SWIDTH 299 0
DWIDTH 8 0
BBX 8 11 1 0
BITMAP
001D
0078
0090
0000
1808
6424
6070
90A0
C190
C494
E074
ENDCHAR
STARTCHAR ucircumflex
ENCODING 251
SWIDTH 299 0
DWIDTH 8 0
BBX 7 12 1 0
BITMAP
0060
0158
0000
0000
0000
1808
6424
6070
90A0
C190
C494
E074
ENDCHAR
STARTCHAR udieresis
ENCODING 252
SWIDTH 299 0
DWIDTH 8 0
BBX 7 11 1 0
BITMAP
0148
0258
0000
0000
1808
6424
6070
90A0
C190
C494
E074
ENDCHAR
STARTCHAR yacute
ENCODING 253
SWIDTH 280 0
DWIDTH 8 0
BBX 14 18 -5 -7
BITMAP
000000D0
00000380
00000900
00000000
00018080
00064240
00020300
00090A00
00081900
000C4C00
000A1800
00002400
00002000
40005000
80008000
C0020000
90040000
2A500000
ENDCHAR
STARTCHAR thorn
ENCODING 254
SWIDTH 261 0
DWIDTH 7 0
BBX 8 21 -1 -7
BITMAP
0005
0019
0008
0014
0020
0060
0080
008A
0143
0203
0506
0809
0828
1F90
2000
2000
6000
5000
8000
C000
E400
ENDCHAR
STARTCHAR ydieresis
ENCODING 255
SWIDTH 280 0
DWIDTH 8 0
BBX 13 18 -5 -7
BITMAP
00001480
00002580
00000000
00000000
00018080
00064240
00020300
00090A00
00081900
000C4C00
000A1800
00002400
00002000
40005000
80008000
C0020000
90040000
2A500000
ENDCHAR
STARTCHAR dotlessi
ENCODING 305
SWIDTH 149 0
DWIDTH 4 0
BBX 3 7 1 0
BITMAP
18
64
20
50
80
C4
E0
ENDCHAR
STARTCHAR Lslash
ENCODING 321
SWIDTH 657 0
DWIDTH 18 0
BBX 20 18 1 0
BITMAP
00000002F8
000000141D
0000005008
0000008004
0000020000
0000020000
0000090000
00000D5400
00016E4000
0005280000
0000340000
0000300000
0000A00000
0000D00000
6BA6800000
802F000040
D065A40600
BE801BF800
ENDCHAR
STARTCHAR lslash
ENCODING 322
SWIDTH 134 0
DWIDTH 4 0
BBX 13 21 1 0
BITMAP
00001B40
00009540
00010000
00040000
00040000
00100000
00400000
00400000
01500000
16000000
05000000
08000000
14000000
20000000
20000000
60000000
90000000
80000000
C0000000
C4000000
E0000000
ENDCHAR
STARTCHAR OE
ENCODING 338
SWIDTH 827 0
DWIDTH 23 0
BBX 23 18 2 0
BITMAP
0001BF8056A0
001901B60028
0080002C0014
0200000C0000
0800000D0000
1400000B8000
20000006E000
600000540000
900002000000
D00009000000
C00018000000
D00024000000
D00034000000
A00034000040
740028000140
3C001C000200
0F906E000900
02BF91A55000
ENDCHAR
STARTCHAR oe
ENCODING 339
SWIDTH 345 0
DWIDTH 10 0
BBX 9 7 1 0
BITMAP
0B4740
10D280
40D500
80D000
818000
C2C100
B4B800
ENDCHAR
STARTCHAR Scaron
ENCODING 352
SWIDTH 480 0
DWIDTH 13 0
BBX 14 21 1 0
BITMAP
00002850
00000600
00000000
00006B80
000140A0
00020060
00060050
00060000
00034000
0002C000
0000E000
00007400
00002C00
00000D00
00000600
20000700
60000200
A0000600
70000800
29001000
06AA4000
ENDCHAR
STARTCHAR scaron
ENCODING 353
SWIDTH 188 0
DWIDTH 5 0
BBX 5 12 0 0
BITMAP
0600
0140
0000
0000
0000
0580
0C40
0D00
0700
0240
8240
9500
ENDCHAR
STARTCHAR Ydieresis
ENCODING 376
SWIDTH 662 0
DWIDTH 19 0
BBX 25 25 0 -4
BITMAP
00000000110000
00000000990000
00000000000000
00000680000240
000010C0000700
000040C0000D00
00000180001C00
00000280003400
0000034000B000
0000030001D000
0000060003C000
00000900074000
00000C001A0000
000018005D0000
00501801680000
05001D19700000
24000BE0900000
60000001800000
90000003000000
90000009000000
90000024000000
A0000090000000
74000640000000
1E406800000000
06FE4000000000
ENDCHAR
STARTCHAR Zcaron
ENCODING 381
SWIDTH 625 0
DWIDTH 18 0
BBX 19 21 1 0
BITMAP
0000009100
0000002400
0000000000
00006FE904
00024016F4
0001000090
0004000200
0004000800
0000002000
0000008000
0000020000
0000080000
0000200000
0001800000
0006000000
0018000000
0060000040
0180000100
0600000500
1FA5006400
605BFF9000
ENDCHAR
STARTCHAR zcaron
ENCODING 382
SWIDTH 248 0
DWIDTH 7 0
BBX 7 12 0 0
BITMAP
0140
0040
0000
0000
0000
0BE8
1020
0040
0100
1400
6010
AF80
ENDCHAR
STARTCHAR florin
ENCODING 402
SWIDTH 214 0
DWIDTH 6 0
BBX 9 12 -2 -3
BITMAP
0007C0
001480
002000
006000
009000
02FA00
00C000
018000
024000
020000
040000
A40000
ENDCHAR
STARTCHAR circumflex
ENCODING 710
SWIDTH 196 0
DWIDTH 5 0
BBX 4 2 1 10
BITMAP
24
4A
ENDCHAR
STARTCHAR caron
ENCODING 711
SWIDTH 196 0
DWIDTH 5 0
BBX 2 2 1 10
BITMAP
80
10
ENDCHAR
STARTCHAR breve
ENCODING 728
SWIDTH 198 0
DWIDTH 6 0
BBX 5 3 0 9
BITMAP
0040
5040
1000
ENDCHAR
STARTCHAR dotaccent
ENCODING 729
SWIDTH 89 0
DWIDTH 2 0
BBX 2 2 0 9
BITMAP
20
60
ENDCHAR
STARTCHAR ring
ENCODING 730
SWIDTH 117 0
DWIDTH 3 0
BBX 3 3 0 8
BITMAP
14
44
74
ENDCHAR
STARTCHAR ogonek
ENCODING 731
SWIDTH 124 0
DWIDTH 3 0
BBX 3 4 0 -4
BITMAP
14
50
64
10
ENDCHAR
STARTCHAR tilde
ENCODING 732
SWIDTH 222 0
DWIDTH 6 0
BBX 6 2 0 9
BITMAP
2910
5780
ENDCHAR
STARTCHAR hungarumlaut
ENCODING 733
SWIDTH 253 0
DWIDTH 7 0
BBX 7 3 0 8
BITMAP
0A34
1DA0
6140
ENDCHAR
STARTCHAR mu.dup2
ENCODING 956
SWIDTH 324 0
DWIDTH 9 0
BBX 10 11 -1 -4
BITMAP
005050
00C0C0
024280
030640
060700
0A1300
1A8280
240000
300000
700000
600000
ENDCHAR
STARTCHAR endash
ENCODING 8211
SWIDTH 500 0
DWIDTH 14 0
BBX 14 1 0 4
BITMAP
7FFFFFD0
ENDCHAR
STARTCHAR emdash
ENCODING 8212
SWIDTH 1000 0
DWIDTH 28 0
BBX 28 1 0 4
BITMAP
7FFFFFFFFFFFFD
ENDCHAR
STARTCHAR quoteleft
ENCODING 8216
SWIDTH 87 0
DWIDTH 2 0
BBX 3 5 1 7
BITMAP
04
14
20
60
50
ENDCHAR
STARTCHAR quoteright
ENCODING 8217
SWIDTH 87 0
DWIDTH 2 0
BBX 3 5 1 7
BITMAP
04
18
18
10
40
ENDCHAR
STARTCHAR quotesinglbase
ENCODING 8218
SWIDTH 112 0
DWIDTH 3 0
BBX 3 4 0 -2
BITMAP
14
24
10
40
ENDCHAR
STARTCHAR quotedblleft
ENCODING 8220
SWIDTH 167 0
DWIDTH 5 0
BBX 5 5 1 7
BITMAP
0440
1140
2200
6300
5200
ENDCHAR
STARTCHAR quotedblright
ENCODING 8221
SWIDTH 167 0
DWIDTH 5 0
BBX 5 5 1 7
BITMAP
0880
18C0
1880
1140
5100
ENDCHAR
STARTCHAR quotedblbase
ENCODING 8222
SWIDTH 192 0
DWIDTH 5 0
BBX 5 4 0 -2
BITMAP
2580
2580
2100
4500
ENDCHAR
STARTCHAR dagger
ENCODING 8224
SWIDTH 185 0
DWIDTH 5 0
BBX 7 17 0 -2
BITMAP
0050
0080
0080
0140
0200
2FE8
6600
0500
0800
0800
0400
1400
1000
1000
1000
1000
4000
ENDCHAR
STARTCHAR daggerdbl
ENCODING 8225
SWIDTH 185 0
DWIDTH 5 0
BBX 7 18 0 -3
BITMAP
0010
0080
0080
0140
0200
6FF8
0200
0500
0800
0800
0800
1400
BF80
1000
1000
1000
5000
4000
ENDCHAR
STARTCHAR bullet
ENCODING 8226
SWIDTH 207 0
DWIDTH 6 0
BBX 4 3 1 3
BITMAP
2E
7E
7D
ENDCHAR
STARTCHAR ellipsis
ENCODING 8230
SWIDTH 376 0
DWIDTH 11 0
BBX 9 1 1 0
BITMAP
918180
ENDCHAR
STARTCHAR perthousand
ENCODING 8240
SWIDTH 571 0
DWIDTH 16 0
BBX 16 13 0 -2
BITMAP
00001000
00002000
0B808000
24C20000
20850000
50485014
6522B06D
14542505
01482204
02081304
080A42A0
14000000
20000000
ENDCHAR
STARTCHAR guilsinglleft
ENCODING 8249
SWIDTH 189 0
DWIDTH 5 0
BBX 6 7 0 0
BITMAP
0050
0240
0800
6000
3400
0D00
0600
ENDCHAR
STARTCHAR guilsinglright
ENCODING 8250
SWIDTH 176 0
DWIDTH 5 0
BBX 5 7 -1 0
BITMAP
0900
0700
0280
0080
0600
1400
5000
ENDCHAR
STARTCHAR fraction
ENCODING 8260
SWIDTH 220 0
DWIDTH 6 0
BBX 10 11 -1 -1
BITMAP
000010
000090
000140
000500
001400
002000
008000
020000
040000
140000
500000
ENDCHAR
STARTCHAR Euro
ENCODING 8364
SWIDTH 360 0
DWIDTH 10 0
BBX 9 9 0 0
BITMAP
000180
010040
080000
3FF000
180000
6FE000
180000
180400
051400
ENDCHAR
STARTCHAR trademark
ENCODING 8482
SWIDTH 389 0
DWIDTH 11 0
BBX 8 4 2 5
BITMAP
6521
1066
8122
8552
ENDCHAR
STARTCHAR minus
ENCODING 8722
SWIDTH 301 0
DWIDTH 8 0
BBX 7 1 1 4
BITMAP
7FF4
ENDCHAR
STARTCHAR fi
ENCODING 64257
SWIDTH 297 0
DWIDTH 8 0
BBX 23 28 -8 -7
BITMAP
0000000002F0
000000001418
000000005004
000000014000
000000020000
000000040000
000000080000
000000240000
000000200000
000000500000
000000801000
000001808000
000002404000
000003000000
00002FFF0000
000016050000
000009080000
00000C180000
000018240000
000024210000
000020280000
000090000000
000080000000
000200000000
000500000000
000400000000
801000000000
A94000000000
ENDCHAR
STARTCHAR fl
ENCODING 64258
SWIDTH 290 0
DWIDTH 8 0
BBX 26 28 -8 -7
BITMAP
000000000142E0
000000001AE960
00000000501000
00000001404000
00000002010000
00000008000000
00000008040000
00000024100000
00000020100000
00000050400000
000000C0400000
00000181400000
00000242000000
00000301000000
00002FFD000000
00001608000000
00000908000000
00000C18000000
00001824000000
00002025000000
0000602D000000
00009000000000
00008000000000
00020000000000
00050000000000
00040000000000
40100000000000
A9400000000000
ENDCHAR
STARTCHAR .notdef
ENCODING -1
SWIDTH 150 0
DWIDTH 4 0
BBX 1 1 0 0
BITMAP
00
ENDCHAR
STARTCHAR .null
ENCODING -1
SWIDTH 0 0
DWIDTH 0 0
BBX 1 1 0 0
BITMAP
00
ENDCHAR
STARTCHAR nonmarkingreturn
ENCODING -1
SWIDTH 150 0
DWIDTH 4 0
BBX 1 1 0 0
BITMAP
00
ENDCHAR
ENDFONT
